<svg xmlns="http://www.w3.org/2000/svg" height="300" width="300" viewBox="0 0 100 100"><path fill="#002b36" d="M0 0h100v100H0z"/><g fill="#b58900"><path d="M15.8 88.1c-.4-.2-.8-.5-1-.8-.4-.6-.5-2-.2-2.7A5208 5208 0 0 1 63 35.4l-1.9-.6-3.8-1.2c-1.6-.5-2-.7-2.5-1.2-1-1-1-2.6 0-3.6a98 98 0 0 1 4.7-3.5l4.3-3v-5.7l-.1-5.6.4-.6c.6-.9 1.6-1.3 2.5-1.2.9.1.7 0 5.8 3.8l4 3 4.8-1.7c5.7-2 5.7-2 6.6-1.7 1.1.2 2 1.3 2 2.5l-1.7 5.6c-1.5 4.6-1.7 5.2-1.5 5.5a237.5 237.5 0 0 0 6.3 8.6c.3.6.2 1.7-.1 2.4-.2.3-.5.7-1 1l-.6.4H79.9L76.7 43a60 60 0 0 1-3.5 4.7 3 3 0 0 1-3.1 0c-.7-.5-1-1.1-2-4.8a85 85 0 0 0-1.2-3.5l-21 20.8C31.1 75 18.5 88.1 18.1 88.2c-.9.4-1.4.3-2.3 0zm58.9-51.5c2.6-3.7 2.3-3.6 6.8-3.5H85l-2-2.8c-1.9-2.5-2.3-3.2-2.3-3.9l1.1-3.6 1-3.3-3 1c-3.1 1-4 1.2-4.8 1a67 67 0 0 0-5.7-4l-.1 3.6v3.7l-.5.5a25 25 0 0 1-3 2.4c-1.6 1-2.7 2-2.6 2l3.3 1c4 1.3 4 1.2 5 4.7a259 259 0 0 1 1.4 4l2-2.8z"/><path d="M8.6 14.3l29.8 20.2v.1L22 34.4 55.7 62 42 61l48 35.8.1-.1-26.4-27c3 0 5.7.2 8.7.3L46.3 42.6l10.5.5-3.8-3.9-26.6-26.6c-.4-.5-.9-.6-1.5-.5L9.4 14l-.8.1v.2z" clip-rule="evenodd" fill-rule="evenodd" stroke="#002b36" stroke-width="1.062189"/></g></svg>
